<?xml version="1.0" encoding="UTF-8"?>
<svg width="255px" height="176px" viewBox="0 0 255 176" version="1.1" xmlns="http://www.w3.org/2000/svg" xmlns:xlink="http://www.w3.org/1999/xlink" style="background: #FFFFFF;">
    <!-- Generator: Sketch 46.2 (44496) - http://www.bohemiancoding.com/sketch -->
    <title>RDT_logo</title>
    <desc>Created with Sketch.</desc>
    <defs>
        <rect id="path-1" x="0" y="0" width="100" height="100" rx="14"></rect>
    </defs>
    <g id="Page-1" stroke="none" stroke-width="1" fill="none" fill-rule="evenodd">
        <g id="RDT_logo">
            <g id="Group-3" transform="translate(31.000000, 38.000000)">
                <mask id="mask-2" fill="white">
                    <use xlink:href="#path-1"></use>
                </mask>
                <use id="Rectangle" fill="#F44336" xlink:href="#path-1"></use>
                <g id="Group-4" mask="url(#mask-2)" fill="#EF9A9A">
                    <g transform="translate(-2.000000, 0.000000)" id="Oval">
                        <circle cx="51.4322959" cy="2" r="2"></circle>
                        <circle cx="64.4244073" cy="10.9972904" r="2"></circle>
                        <circle cx="79" cy="2" r="2"></circle>
                        <circle cx="87.5" cy="31" r="2"></circle>
                        <circle cx="86" cy="58" r="2"></circle>
                        <circle cx="86" cy="77" r="2"></circle>
                        <circle cx="107.5" cy="56" r="2"></circle>
                        <circle cx="99.5" cy="21" r="2"></circle>
                        <circle cx="101.5" cy="73.5" r="2"></circle>
                        <circle cx="91.5" cy="95" r="2"></circle>
                        <circle cx="75" cy="93" r="2"></circle>
                        <circle cx="79" cy="19" r="2"></circle>
                        <circle cx="2" cy="21" r="2"></circle>
                        <circle cx="4" cy="4" r="2"></circle>
                    </g>
                </g>
                <g id="Group-2" mask="url(#mask-2)" stroke="#EF9A9A" stroke-width="0.7">
                    <g transform="translate(-2.000000, -4.000000)" id="Stroke-45">
                        <path d="M25.4999885,1.42496497 L21.9988623,19.8375214"></path>
                        <path d="M26.0372905,0.494916169 L35.5,15.2596912"></path>
                        <path d="M3.5,8.5 L26.9923114,1.60736359"></path>
                        <path d="M1.5,24.5 L12.4722052,27.7408118"></path>
                        <path d="M3.5,7.5 L2.5,23.5"></path>
                        <path d="M36,15.842137 L51.0648848,5.83500373"></path>
                        <path d="M79.0847622,22.9383152 L64.2527595,15.09581"></path>
                        <path d="M79.0809496,6 L79.0809496,23.1923789"></path>
                        <path d="M79.1059062,23.367 L87.4898927,35.0663729"></path>
                        <path d="M78.8290975,23.3816682 L66.5569087,45.6759425"></path>
                        <path d="M64.2724543,14.9019248 L59.1166651,30.9204625"></path>
                        <path d="M79.2821487,5.76655952 L64.6760952,14.6261882"></path>
                        <path d="M105.189014,7.34266144 L79.1740182,6.27175871"></path>
                        <path d="M107.026406,7.98362355 L79.2917693,22.9383152"></path>
                        <path d="M106.5,6.5 L99.7022806,25"></path>
                        <path d="M85.933878,62.0190388 L66.3832169,45.6618096"></path>
                        <path d="M87.6025003,35.0942713 L66.5787777,45.9633407"></path>
                        <path d="M99.7022806,25.0747679 L87.6055127,34.9952576"></path>
                        <path d="M99.7030171,25.3524328 L105.306765,49.0600036"></path>
                        <path d="M86.1055127,62.2758595 L86.1055127,80.9008886"></path>
                        <path d="M104.5,57.5 L86.2637201,62.1594808"></path>
                        <path d="M106.163908,55.9459392 L87.7679913,35.370428"></path>
                        <path d="M86.1365004,62.1001592 L101.387895,77.5622342"></path>
                        <path d="M112.00552,39.1618096 L102.598589,52.6618096"></path>
                        <path d="M87.5,34.5 L86.098263,61.9597173"></path>
                        <path d="M51.5607235,6.02899813 L64.4069314,14.924965"></path>
                        <path d="M101.479149,77.5942843 L86.147032,81.1840829"></path>
                        <path d="M103.755739,102.066447 L91.7557393,99.0664469"></path>
                        <path d="M85.6985813,81.0517772 L67.2539898,81.75"></path>
                        <path d="M74.9894905,97 L61.1368589,97"></path>
                        <path d="M85.8870362,62.5 L69.095284,62.5"></path>
                        <path d="M86.1108489,81.0762647 L75.1009636,96.7311053"></path>
                        <path d="M86.1055127,81.5 L91.5021256,99.4554342"></path>
                        <path d="M91.5989792,99.5161048 L101.501809,77.4930448"></path>
                        <path d="M75.3373293,97.6646584 L82.3373293,113.231105"></path>
                        <path d="M74.5,97.5 L91.5,99.5"></path>
                        <path d="M61.5,98.5664469 L62.5,110.5"></path>
                        <path d="M49,19.6261882 L51.4174859,6.05808577"></path>
                        <path d="M1.52779482,25.133 L3.5,46.5"></path>
                        <path d="M3.5,7.5 L12.4722052,28.1261882"></path>
                    </g>
                </g>
                <path d="M67,61 C67,88.062173 51.7774279,110 33,110 C14.2225721,110 -1,88.062173 -1,61 C-1,33.937827 14.2225721,12 33,12 C51.7774279,12 67,33.937827 67,61 Z" id="Stroke-1" stroke="#FEFEFE" stroke-width="3" mask="url(#mask-2)"></path>
                <g id="white-oval" mask="url(#mask-2)" fill="#FFFFFF">
                    <g transform="translate(-1.000000, 9.000000)" id="Oval">
                        <circle cx="34.5" cy="3" r="2.5"></circle>
                        <circle cx="47.5" cy="7" r="2.5"></circle>
                        <circle cx="58" cy="17.5" r="2.5"></circle>
                        <circle cx="65.5" cy="32.5" r="2.5"></circle>
                        <circle cx="68" cy="49.5" r="2.5"></circle>
                        <circle cx="66" cy="68.5" r="2.5"></circle>
                        <circle cx="60" cy="83.5" r="2.5"></circle>
                        <circle cx="8.5" cy="84.5" r="2.5"></circle>
                        <circle cx="2.5" cy="70.5" r="2.5"></circle>
                        <circle cx="2.5" cy="32.5" r="2.5"></circle>
                        <circle cx="11.5" cy="15.5" r="2.5"></circle>
                        <circle cx="20.5" cy="7.5" r="2.5"></circle>
                        <circle cx="44.5" cy="14.5" r="2.5"></circle>
                        <circle cx="58.5" cy="37.5" r="2.5"></circle>
                        <circle cx="59.5" cy="63.5" r="2.5"></circle>
                        <circle cx="46.5" cy="88.5" r="2.5"></circle>
                        <circle cx="24.5" cy="88.5" r="2.5"></circle>
                        <circle cx="9.5" cy="66.5" r="2.5"></circle>
                        <circle cx="9.5" cy="35.5" r="2.5"></circle>
                        <circle cx="19.5" cy="27.5" r="2.5"></circle>
                        <circle cx="21.5" cy="16.5" r="2.5"></circle>
                        <circle cx="34.5" cy="20.5" r="2.5"></circle>
                        <circle cx="48.5" cy="27.5" r="2.5"></circle>
                        <circle cx="55.5" cy="52.5" r="2.5"></circle>
                        <circle cx="51.5" cy="75.5" r="2.5"></circle>
                        <circle cx="35.5" cy="83.5" r="2.5"></circle>
                        <circle cx="17.5" cy="74.5" r="2.5"></circle>
                        <circle cx="12.5" cy="52.5" r="2.5"></circle>
                    </g>
                </g>
                <g id="white-line" mask="url(#mask-2)" stroke="#FEFEFE">
                    <g transform="translate(-1.000000, 11.000000)">
                        <path d="M24.5522044,86.7914136 L21,96" id="Stroke-3"></path>
                        <path d="M45,85 L48,95" id="Stroke-5"></path>
                        <path d="M60.0267756,81.6471353 L46.4787253,86.7957992" id="Stroke-7"></path>
                        <path d="M24.507674,86.8055824 L8.57083526,82.5121054" id="Stroke-9"></path>
                        <path d="M2.96850669,68.9504902 L9.60684279,64.595686" id="Stroke-11"></path>
                        <path d="M8.64741413,82.7890713 L9.42198492,64.6729396" id="Stroke-13"></path>
                        <path d="M24.6905187,86.9182579 L17.523816,72.5318883" id="Stroke-15"></path>
                        <path d="M35.5,81.5 L17.5309004,72.45396" id="Stroke-17"></path>
                        <path d="M9.64867442,64.6459515 L17.6982269,72.7461067" id="Stroke-19"></path>
                        <path d="M0,48 L9.5,64.5" id="Stroke-21"></path>
                        <path d="M12.4385742,50.6677776 L9.73942206,65.0679786" id="Stroke-23"></path>
                        <path d="M17.5369727,72.6934798 L12.5340448,50.46874" id="Stroke-25"></path>
                        <path d="M19.4798834,25.2811247 L12.241296,50.8038368" id="Stroke-27"></path>
                        <path d="M11,33 L18.5,26.5" id="Stroke-29"></path>
                        <path d="M12.7282546,50.9000323 L9.61710244,33.7637743" id="Stroke-31"></path>
                        <path d="M0,50 L9.35194176,33.948689" id="Stroke-33"></path>
                        <path d="M3,31 L9.54981543,33.6994778" id="Stroke-35"></path>
                        <path d="M11.5,14.5 L9.5,33.5" id="Stroke-37"></path>
                        <path d="M21.6859007,14.3436404 L11.4248802,13.5308184" id="Stroke-39"></path>
                        <path d="M19.7585015,25.7935029 L21.491516,14.5236757" id="Stroke-41"></path>
                        <path d="M20.5883747,5.30684999 L21.5441874,14.9219151" id="Stroke-43"></path>
                        <path d="M34.6618275,0.844973318 L21.4770617,14.6143885" id="Stroke-45"></path>
                        <path d="M34.5516762,18.612234 L21.8364242,14.6891519" id="Stroke-47"></path>
                        <path d="M19.3866785,25.6758752 L34.6782755,18.4622089" id="Stroke-49"></path>
                        <path d="M45.5,12.5 L35.5,19.5" id="Stroke-51"></path>
                        <path d="M35,1 L44.566476,12.6775194" id="Stroke-53"></path>
                        <path d="M47.678625,4.9968313 L44.6636684,12.4407688" id="Stroke-55"></path>
                        <path d="M51.5325933,73.4528588 L46.7998842,86.5906893" id="Stroke-57"></path>
                        <path d="M35.5640435,81.5553756 L51.5258463,73.5904984" id="Stroke-59"></path>
                        <path d="M59.4397833,61.2818788 L59.9698917,81.6548944" id="Stroke-61"></path>
                        <path d="M51.5288825,73.7746925 L59.3227222,61.5922425" id="Stroke-63"></path>
                        <path d="M44.5131448,12.4891157 L58.3294117,15.4936055" id="Stroke-65"></path>
                        <path d="M58.8166945,35.3945099 L58.152786,15.3986537" id="Stroke-67"></path>
                        <path d="M48.7671794,25.9948655 L44.8455925,12.6844973" id="Stroke-69"></path>
                        <path d="M34.5,18.5 L48.8942771,25.8129414" id="Stroke-71"></path>
                        <path d="M55.5,51.5 L49,27" id="Stroke-73"></path>
                        <path d="M58.5,35.5 L48.5,25.5" id="Stroke-75"></path>
                        <path d="M56.0512927,51.2301109 L58.9143633,36.1233893" id="Stroke-77"></path>
                        <path d="M65.8137092,30.5693664 L58.7765496,35.5645352" id="Stroke-79"></path>
                        <path d="M68,48 L59.1239198,36.0144893" id="Stroke-81"></path>
                        <path d="M59.5551577,61.7147012 L67.9383511,47.6596111" id="Stroke-83"></path>
                        <path d="M55.5339236,50.2484492 L59.7164118,61.6772552" id="Stroke-85"></path>
                        <path d="M51.6270518,73.7490538 L55.6550329,50.5024752" id="Stroke-87"></path>
                        <path d="M66.1122656,66.5577244 L59.5750614,61.4930611" id="Stroke-89"></path>
                        <path d="M24.6743258,86.602834 L35.5,81.5" id="Stroke-91"></path>
                        <path d="M46.7742455,86.9519931 L35.7050566,81.7385576" id="Stroke-93"></path>
                        <path d="M34.9333333,99.2618725 L24.7974592,87.0575842" id="Stroke-95"></path>
                    </g>
                </g>
            </g>
            <text id="RED-DATA-TOOLS" font-family="DINCondensed-Bold, DIN Condensed" font-size="38" font-weight="bold" line-spacing="32" fill="#000000">
                <tspan x="143" y="64.5">RED</tspan>
                <tspan x="143" y="96.5">DATA</tspan>
                <tspan x="143" y="128.5">TOOLS</tspan>
            </text>
        </g>
    </g>
</svg>